<svg viewBox="0 0 304.67 69.75">
    <path
        d="M.17,50.14l15-42.28h8.87l15,42.28H32.48L29,40.28H10.27L6.79,50.14Zm11.6-14.79H27.43l-4.64-13-2.95-8.64h-.35l-3,8.64Z"
        transform="translate(-0.17 -7.39)" fill="#e10000" />
    <path
        d="M43.38,50.14V19.46h5.69l.23,6.09h.35a9.56,9.56,0,0,1,4-4.9,12.1,12.1,0,0,1,12.18,0,9.17,9.17,0,0,1,3.86,5.57h.46a10,10,0,0,1,4.2-5.4A12.35,12.35,0,0,1,81,19a11.38,11.38,0,0,1,5.42,1.28,8.91,8.91,0,0,1,3.8,4.12,17.23,17.23,0,0,1,1.39,7.54V50.14H85.67v-17A15.3,15.3,0,0,0,84.91,28a5.92,5.92,0,0,0-2.26-3.05,7.08,7.08,0,0,0-3.94-1,7.46,7.46,0,0,0-4.35,1.28,8.5,8.5,0,0,0-2.88,3.39,11.07,11.07,0,0,0-1,4.79V50.14h-6v-17A15.3,15.3,0,0,0,63.74,28a5.92,5.92,0,0,0-2.26-3.05,7,7,0,0,0-3.89-1,7.56,7.56,0,0,0-4.4,1.28,8.5,8.5,0,0,0-2.88,3.39,11.07,11.07,0,0,0-1,4.79V50.14Z"
        transform="translate(-0.17 -7.39)" fill="#e10000" />
    <path
        d="M112.46,50.66a15.88,15.88,0,0,1-6.12-1.13,13,13,0,0,1-4.7-3.22,14.64,14.64,0,0,1-3-5,18.44,18.44,0,0,1-1.08-6.49,17.72,17.72,0,0,1,1.86-8.32A13.37,13.37,0,0,1,104.69,21a15.69,15.69,0,0,1,8-2,15.23,15.23,0,0,1,6.64,1.4,11.8,11.8,0,0,1,4.7,3.88,11.15,11.15,0,0,1,2,5.8h-5.8a7,7,0,0,0-1.45-3.36,7.09,7.09,0,0,0-2.69-2,8.78,8.78,0,0,0-3.57-.7,8.27,8.27,0,0,0-4.82,1.37,8.54,8.54,0,0,0-3,3.79,14.47,14.47,0,0,0-1,5.75,13.88,13.88,0,0,0,1.1,5.83,8.43,8.43,0,0,0,3.07,3.68,8.34,8.34,0,0,0,4.64,1.27,9,9,0,0,0,3.94-.81,6.71,6.71,0,0,0,2.7-2.29,7.46,7.46,0,0,0,1.25-3.39h5.8a11.78,11.78,0,0,1-2,6.06,12,12,0,0,1-4.82,4A15.82,15.82,0,0,1,112.46,50.66Z"
        transform="translate(-0.17 -7.39)" fill="#e10000" />
    <path
        d="M130.21,59.83V54.9h3.3a6.33,6.33,0,0,0,2.3-.38,4.39,4.39,0,0,0,1.65-1.16,6.5,6.5,0,0,0,1.16-2l1.85-4.76v2.61L127.89,19.46h6.55l7,18.67,1.28,3.66H143l1.22-3.66,6.61-18.67h6.32L144.36,52.81A13.39,13.39,0,0,1,142,57a7.84,7.84,0,0,1-3.22,2.2,12.79,12.79,0,0,1-4.29.67Z"
        transform="translate(-0.17 -7.39)" fill="#e10000" />
    <path
        d="M193.08,50.66a23.46,23.46,0,0,1-8.53-1.48,18.33,18.33,0,0,1-6.61-4.32A18.68,18.68,0,0,1,173.71,38a26.21,26.21,0,0,1-1.45-9,25.91,25.91,0,0,1,1.48-9A18.79,18.79,0,0,1,178,13.17a18.38,18.38,0,0,1,6.58-4.3,25.47,25.47,0,0,1,17.11,0,18.33,18.33,0,0,1,6.59,4.3A19.07,19.07,0,0,1,212.48,20,25.91,25.91,0,0,1,214,29a25.91,25.91,0,0,1-1.48,9,18.94,18.94,0,0,1-4.26,6.81,18.52,18.52,0,0,1-6.61,4.29A23.46,23.46,0,0,1,193.08,50.66Zm0-5.45a14.54,14.54,0,0,0,7.63-1.94,13,13,0,0,0,5-5.54,19.56,19.56,0,0,0,1.77-8.7,21.51,21.51,0,0,0-1-6.87,14.53,14.53,0,0,0-2.9-5.08A12.33,12.33,0,0,0,199,13.92a15.76,15.76,0,0,0-5.94-1.07,14.47,14.47,0,0,0-7.6,1.91,12.86,12.86,0,0,0-5,5.51A19.71,19.71,0,0,0,178.75,29a21.29,21.29,0,0,0,1,6.84A14.13,14.13,0,0,0,182.64,41a12.45,12.45,0,0,0,4.49,3.16A15.43,15.43,0,0,0,193.08,45.21Z"
        transform="translate(-0.17 -7.39)" fill="#e10000" />
    <path
        d="M240.29,50.66a23.46,23.46,0,0,1-8.53-1.48,18.33,18.33,0,0,1-6.61-4.32A18.68,18.68,0,0,1,220.92,38a26.21,26.21,0,0,1-1.45-9A25.91,25.91,0,0,1,221,20a18.79,18.79,0,0,1,4.23-6.81,18.38,18.38,0,0,1,6.58-4.3,25.47,25.47,0,0,1,17.11,0,18.33,18.33,0,0,1,6.59,4.3A18.93,18.93,0,0,1,259.69,20,25.91,25.91,0,0,1,261.17,29a25.91,25.91,0,0,1-1.48,9,18.81,18.81,0,0,1-4.26,6.81,18.52,18.52,0,0,1-6.61,4.29A23.46,23.46,0,0,1,240.29,50.66Zm0-5.45a14.54,14.54,0,0,0,7.63-1.94,13.05,13.05,0,0,0,5-5.54,19.7,19.7,0,0,0,1.76-8.7,21.23,21.23,0,0,0-1-6.87,14.37,14.37,0,0,0-2.9-5.08,12.37,12.37,0,0,0-4.52-3.16,15.81,15.81,0,0,0-6-1.07,14.47,14.47,0,0,0-7.6,1.91,12.92,12.92,0,0,0-5,5.51A19.71,19.71,0,0,0,226,29a21.29,21.29,0,0,0,1,6.84A14.27,14.27,0,0,0,229.85,41a12.41,12.41,0,0,0,4.5,3.16A15.34,15.34,0,0,0,240.29,45.21Z"
        transform="translate(-0.17 -7.39)" fill="#e10000" />
    <path
        d="M268.54,50.14V7.86h6.32v19l-.93-.92h25.52l-.93.92v-19h6.32V50.14h-6.32V30.54l.93.92H273.93l.93-.92v19.6Z"
        transform="translate(-0.17 -7.39)" fill="#e10000" />
    <polygon points="119.83 69.75 40.31 47.75 119.83 47.75 119.83 69.75" fill="#e10000" />
</svg>