<svg xmlns="http://www.w3.org/2000/svg" viewBox="0 0 442.45 441.57"><defs><style>.cls-1{fill:#ff3008;}</style></defs><g id="Layer_2" data-name="Layer 2"><g id="Layer_1-2" data-name="Layer 1"><path class="cls-1" d="M213.64,267.44c-1.06,2.19-2.23,4.32-3.18,6.56-10.37,24.59-21.65,48.73-36.83,70.79-8.63,12.53-18.16,24.37-31.5,32.32-24.29,14.47-48.4,12.79-71.74-2-25.49-16.12-40.56-47.68-28.3-82,2.5-7,2.39-7-4-10.58C-5.07,258.76-6.41,213.8,8.84,186.05c10.13-18.42,27-26.78,46.82-29.31,22.58-2.88,44.29,2.51,64.91,10.87,25.27,10.25,49.88,22.11,74.78,33.27,1.62.73,3.26,1.41,4.89,2.1l1-1.23c-2.14-2-4.18-4.08-6.43-5.93-21.32-17.61-42.84-35-61-56.08-16.19-18.8-30.2-39-36.13-63.71C91.84,51.68,99,31.66,119,17,144.6-1.65,172.3-5.58,201.44,8.32c5.65,2.7,10.85,6.51,15.87,10.32,3.13,2.37,5.19,2.33,8.24-.11C253.67-3.95,288.2-5.93,318.13,13c26.06,16.5,35.15,44.78,24,73.5-12,31-33,55.31-57,77.32-12.76,11.69-26.25,22.59-39.46,33.78a29.81,29.81,0,0,1-4.7,2.67l1.76,2.23c1.85-.73,3.74-1.38,5.55-2.19,23.53-10.61,46.76-21.92,70.63-31.65,21.71-8.85,44.4-14.37,68.26-11.94,30.81,3.13,52.66,25.57,55,56.4,2.44,32.16-11.39,55.27-39.41,70.25-3.87,2.08-4.36,4.06-2.88,7.87,18.61,47.87-16.78,90.48-58.63,95.3-23.52,2.71-42.53-7.28-58.24-24.07s-27-36.67-36.78-57.39c-4.82-10.24-9.17-20.69-13.78-31a12.31,12.31,0,0,0-3.43-4.73c2.11,55.76,15.5,108.84,37.38,160.54l-31.6,11.68c-17.86-57-22.89-114.9-19.29-173.85Z"/></g></g></svg>